<svg id="图层_1" data-name="图层 1" xmlns="http://www.w3.org/2000/svg" viewBox="0 0 1080 1080"><defs><style>.cls-1{fill:#fdb756;}.cls-2{fill:#660f0a;}</style></defs><title>bagels</title><path class="cls-1" d="M874.46,394.39c-68.74,38.88-87-27.25-87-27.25-62.56-13.57-54.74-71.44-54.74-71.44-46.56-11.29-32.8-64.8-27.64-80.58a362.54,362.54,0,0,0-164.43-39.26c-201.14,0-364.2,163.06-364.2,364.21S339.5,904.28,540.64,904.28,904.85,741.22,904.85,540.07A362.87,362.87,0,0,0,874.46,394.39ZM540.64,630.85a90.78,90.78,0,1,1,90.78-90.78A90.78,90.78,0,0,1,540.64,630.85Z"/><path class="cls-2" d="M540.64,915.79c-207.17,0-375.71-168.55-375.71-375.72S333.47,164.35,540.64,164.35a371.71,371.71,0,0,1,169.64,40.51l8.8,4.46L716,218.7c-2.58,7.88-10.26,34.89-.82,51.84,3.94,7.06,10.55,11.63,20.23,14L745.5,287l-1.39,10.28c-.6,4.81-4.45,47.76,45.78,58.66l6.8,1.47,1.86,6.71c0,.17,6.33,21.52,23.75,28.65,12.21,5,27.85,2.18,46.49-8.36l11.11-6.28,5.1,11.69a373,373,0,0,1,31.36,150.29C916.36,747.24,747.81,915.79,540.64,915.79Zm0-728.42c-194.48,0-352.7,158.22-352.7,352.7s158.22,352.7,352.7,352.7,352.7-158.22,352.7-352.7A350.12,350.12,0,0,0,868.6,410.24c-20.57,9.14-39.1,10.38-55.25,3.69-20.26-8.41-30.44-27.07-34.61-37.09-45.41-12.66-57.63-48.75-58-72.89-11.37-4.57-20-12-25.66-22.21-11-19.64-7.64-44.72-3.73-60.53A348.69,348.69,0,0,0,540.64,187.37Zm0,455A102.29,102.29,0,1,1,642.93,540.07,102.41,102.41,0,0,1,540.64,642.36Zm0-181.56a79.28,79.28,0,1,0,79.28,79.27A79.36,79.36,0,0,0,540.64,460.8Z"/><path class="cls-2" d="M532.35,326.54h0a15.13,15.13,0,0,0,18.29-11.41l5-21a15.67,15.67,0,0,0-11.07-18.87h0a15.14,15.14,0,0,0-18.29,11.42l-5,21A15.66,15.66,0,0,0,532.35,326.54Z"/><path class="cls-2" d="M590.67,388.3h0a15.19,15.19,0,0,0,17.89,12.09L629.12,396a15.65,15.65,0,0,0,11.73-18.45h0A15.19,15.19,0,0,0,623,365.45l-20.56,4.41A15.64,15.64,0,0,0,590.67,388.3Z"/><path class="cls-2" d="M706.27,502.8h0a14,14,0,0,0,14-13.95V465a14,14,0,0,0-14-14h0a14,14,0,0,0-13.95,14v23.88A14,14,0,0,0,706.27,502.8Z"/><path class="cls-2" d="M748.28,557.87h0a15.32,15.32,0,0,0,16.17,14.42l20.95-1.56a15.49,15.49,0,0,0,14-16.68h0a15.32,15.32,0,0,0-16.17-14.43l-21,1.57A15.49,15.49,0,0,0,748.28,557.87Z"/><path class="cls-2" d="M710.81,627.26h0a16,16,0,0,0,2.37,21.92l16.41,13.52a14.87,14.87,0,0,0,21.26-2.45h0a16,16,0,0,0-2.38-21.91l-16.41-13.53A14.86,14.86,0,0,0,710.81,627.26Z"/><path class="cls-2" d="M625.37,689.8h0a14.43,14.43,0,0,0,14.39,14.38H661.2a14.43,14.43,0,0,0,14.39-14.38h0a14.43,14.43,0,0,0-14.39-14.38H639.76A14.43,14.43,0,0,0,625.37,689.8Z"/><path class="cls-2" d="M613.74,758.37h0a15.92,15.92,0,0,0-4.62,21.53l11.29,18.27a14.9,14.9,0,0,0,20.88,4.77h0a15.93,15.93,0,0,0,4.62-21.53l-11.3-18.27A14.89,14.89,0,0,0,613.74,758.37Z"/><path class="cls-2" d="M526.23,739.37h0a15.19,15.19,0,0,0-17.72,12.34l-4,21.27a15.62,15.62,0,0,0,12,18.27h0a15.19,15.19,0,0,0,17.72-12.34l4-21.27A15.62,15.62,0,0,0,526.23,739.37Z"/><path class="cls-2" d="M429.16,746.21h0a15.06,15.06,0,0,0-19.07-10l-20,6.73a15.74,15.74,0,0,0-9.67,19.67h0a15.08,15.08,0,0,0,19.07,10l20-6.74A15.74,15.74,0,0,0,429.16,746.21Z"/><path class="cls-2" d="M352.36,627.24h0A15.34,15.34,0,0,0,336.51,642l-1.05,21.63A15.46,15.46,0,0,0,349.81,680h0a15.34,15.34,0,0,0,15.85-14.79l1-21.64A15.46,15.46,0,0,0,352.36,627.24Z"/><path class="cls-2" d="M316.35,555h0a15.36,15.36,0,0,0-15.67-15l-21,.81a15.45,15.45,0,0,0-14.55,16.16h0a15.36,15.36,0,0,0,15.68,15l21-.8A15.45,15.45,0,0,0,316.35,555Z"/><path class="cls-2" d="M367,490.62h0a16,16,0,0,0-2.37-21.91l-16.41-13.53a14.86,14.86,0,0,0-21.25,2.45h0a16,16,0,0,0,2.37,21.92l16.41,13.52A14.86,14.86,0,0,0,367,490.62Z"/><path class="cls-2" d="M363.15,373.34h0A14.42,14.42,0,0,0,348.77,359H327.33a14.42,14.42,0,0,0-14.39,14.38h0a14.43,14.43,0,0,0,14.39,14.39h21.44A14.43,14.43,0,0,0,363.15,373.34Z"/><path class="cls-2" d="M465.41,368.74h0a16,16,0,0,0,2.8-21.86l-12.78-17.19a14.86,14.86,0,0,0-21.2-2.89h0a16,16,0,0,0-2.8,21.86l12.78,17.2A14.86,14.86,0,0,0,465.41,368.74Z"/></svg>